<svg width="231" height="44" fill="none" xmlns="http://www.w3.org/2000/svg"><rect x="21.214" y="3.262" width="26.5" height="26.5" rx="5.75" transform="rotate(45 21.214 3.262)" stroke="#000" stroke-width="3.5"/><rect x="21.214" y="13.868" width="19" height="19" rx="5.75" transform="rotate(45 21.214 13.868)" fill="#F8CC23" stroke="#000" stroke-width="3.5"/><rect x="21.214" y="24.475" width="11.5" height="11.5" rx="5.75" transform="rotate(45 21.214 24.475)" fill="#fff" stroke="#000" stroke-width="3.5"/><path d="M57.148 29l1.188-3.648h5.773L65.297 29h3.625l-5.516-16h-4.36l-5.523 16h3.625zm2.047-6.289l1.97-6.055h.124l1.969 6.055h-4.063zm20.614-5.71h-3.524l-2.484 8.585h-.125L71.184 17h-3.516l4.195 12h3.75l4.196-12zm4.121 12.226c1.773 0 2.922-.774 3.508-1.891h.094V29h3.156v-8.094c0-2.86-2.422-4.062-5.094-4.062-2.875 0-4.766 1.375-5.226 3.562l3.078.25c.226-.797.937-1.383 2.132-1.383 1.133 0 1.782.57 1.782 1.555v.047c0 .773-.82.875-2.907 1.078-2.375.219-4.507 1.016-4.507 3.695 0 2.375 1.695 3.579 3.984 3.579zm.953-2.297c-1.023 0-1.758-.477-1.758-1.39 0-.938.774-1.4 1.946-1.563.726-.102 1.914-.274 2.312-.54v1.274c0 1.258-1.039 2.219-2.5 2.219zm12.149 2.265c1.937 0 2.945-1.117 3.406-2.117h.141V29h3.281V13h-3.32v6.016h-.102c-.445-.977-1.406-2.172-3.414-2.172-2.633 0-4.86 2.047-4.86 6.172 0 4.015 2.133 6.18 4.868 6.18zm1.054-2.648c-1.632 0-2.523-1.453-2.523-3.547 0-2.078.875-3.508 2.523-3.508 1.618 0 2.524 1.367 2.524 3.508 0 2.14-.922 3.547-2.524 3.547zm11.272 2.68c1.773 0 2.922-.774 3.508-1.891h.094V29h3.156v-8.094c0-2.86-2.422-4.062-5.094-4.062-2.875 0-4.766 1.375-5.226 3.562l3.078.25c.226-.797.937-1.383 2.132-1.383 1.133 0 1.782.57 1.782 1.555v.047c0 .773-.821.875-2.907 1.078-2.375.219-4.507 1.016-4.507 3.695 0 2.375 1.695 3.579 3.984 3.579zm.953-2.297c-1.023 0-1.758-.477-1.758-1.39 0-.938.774-1.4 1.946-1.563.726-.102 1.914-.274 2.312-.54v1.274c0 1.258-1.039 2.219-2.5 2.219zm21.907-8.328c-.446-3.696-3.243-5.82-6.946-5.82-4.226 0-7.453 2.984-7.453 8.218 0 5.219 3.172 8.219 7.453 8.219 4.102 0 6.578-2.727 6.946-5.672l-3.422-.016c-.321 1.711-1.664 2.696-3.469 2.696-2.43 0-4.078-1.805-4.078-5.227 0-3.328 1.625-5.226 4.101-5.226 1.852 0 3.188 1.07 3.446 2.828h3.422zm7.125 10.632c3.64 0 5.906-2.492 5.906-6.187 0-3.719-2.266-6.203-5.906-6.203-3.641 0-5.907 2.484-5.907 6.203 0 3.695 2.266 6.187 5.907 6.187zm.015-2.578c-1.679 0-2.539-1.539-2.539-3.633 0-2.093.86-3.64 2.539-3.64 1.649 0 2.508 1.547 2.508 3.64 0 2.094-.859 3.633-2.508 3.633zm10.723-4.593c.008-1.547.93-2.454 2.274-2.454 1.336 0 2.14.875 2.132 2.344V29h3.329v-7.64c0-2.797-1.641-4.516-4.141-4.516-1.781 0-3.07.875-3.609 2.273h-.141V17h-3.172v12h3.328v-6.937zm19.682-1.641c-.297-2.211-2.078-3.578-5.109-3.578-3.071 0-5.094 1.422-5.086 3.734-.008 1.797 1.125 2.961 3.468 3.43l2.079.414c1.046.21 1.523.594 1.539 1.195-.016.711-.789 1.219-1.954 1.219-1.187 0-1.976-.508-2.179-1.484l-3.274.171c.313 2.297 2.266 3.711 5.446 3.711 3.109 0 5.336-1.586 5.343-3.953-.007-1.734-1.14-2.773-3.468-3.25l-2.172-.437c-1.117-.242-1.531-.625-1.524-1.203-.007-.72.805-1.188 1.836-1.188 1.157 0 1.844.633 2.008 1.406l3.047-.187zm9.404 3.469c.008 1.61-1.093 2.453-2.289 2.453-1.257 0-2.07-.883-2.078-2.297V17h-3.328v7.64c.008 2.805 1.649 4.516 4.063 4.516 1.804 0 3.101-.93 3.64-2.336h.125V29h3.196V17h-3.329v6.89zM187.826 13h-3.328v16h3.328V13zm8.389 4h-2.258v-2.876h-3.328V17h-1.641v2.5h1.641v6.25c-.016 2.352 1.586 3.516 4 3.414a6.468 6.468 0 001.804-.312l-.523-2.477c-.164.031-.516.11-.828.11-.664 0-1.125-.25-1.125-1.172V19.5h2.258V17zm4.929 12.226c1.774 0 2.922-.774 3.508-1.891h.094V29h3.156v-8.094c0-2.86-2.422-4.062-5.093-4.062-2.875 0-4.766 1.375-5.227 3.562l3.078.25c.227-.797.938-1.383 2.133-1.383 1.133 0 1.781.57 1.781 1.555v.047c0 .773-.82.875-2.906 1.078-2.375.219-4.508 1.016-4.508 3.695 0 2.375 1.695 3.579 3.984 3.579zm.954-2.297c-1.024 0-1.758-.477-1.758-1.39 0-.938.773-1.4 1.945-1.563.727-.102 1.914-.274 2.313-.54v1.274c0 1.258-1.039 2.219-2.5 2.219zm11.054-4.867c.008-1.547.93-2.454 2.274-2.454 1.336 0 2.14.875 2.133 2.344V29h3.328v-7.64c0-2.797-1.641-4.516-4.141-4.516-1.781 0-3.07.875-3.609 2.273h-.141V17h-3.172v12h3.328v-6.937zM229.233 17h-2.258v-2.875h-3.328V17h-1.641v2.5h1.641v6.25c-.016 2.352 1.586 3.516 4 3.414a6.468 6.468 0 001.804-.312l-.523-2.477c-.164.031-.516.11-.828.11-.664 0-1.125-.25-1.125-1.172V19.5h2.258V17z" fill="#000"/></svg>